<?xml version="1.0" encoding="UTF-8" standalone="no"?>
<!-- Created with Inkscape (http://www.inkscape.org/) -->

<svg
   version="1.1"
   id="svg2"
   xml:space="preserve"
   width="428.31467"
   height="167.90399"
   viewBox="0 0 428.31467 167.90399"
   sodipodi:docname="ee48d03e0469e35bdb98e9ef48ae64a1.eps"
   xmlns:inkscape="http://www.inkscape.org/namespaces/inkscape"
   xmlns:sodipodi="http://sodipodi.sourceforge.net/DTD/sodipodi-0.dtd"
   xmlns="http://www.w3.org/2000/svg"
   xmlns:svg="http://www.w3.org/2000/svg"><defs
     id="defs6" /><sodipodi:namedview
     id="namedview4"
     pagecolor="#ffffff"
     bordercolor="#666666"
     borderopacity="1.0"
     inkscape:pageshadow="2"
     inkscape:pageopacity="0.0"
     inkscape:pagecheckerboard="0" /><g
     id="g8"
     inkscape:groupmode="layer"
     inkscape:label="ink_ext_XXXXXX"
     transform="matrix(1.3333333,0,0,-1.3333333,0,167.904)"><g
       id="g10"
       transform="scale(0.1)"><path
         d="M 878.242,1259.28 V 767.953 h -79.316 v 205.652 l 7.722,174.075 -246.367,-379.727 h -93.355 v 491.327 h 79.312 v -205.65 l -7.015,-173.372 245.668,379.022 h 93.351"
         style="fill:#100f0d;fill-opacity:1;fill-rule:nonzero;stroke:none"
         id="path12" /><path
         d="M 1260.27,1079.59 H 1134.63 V 767.953 h -79.32 V 1079.59 H 928.969 V 1154 h 205.661 125.64 v -74.41"
         style="fill:#100f0d;fill-opacity:1;fill-rule:nonzero;stroke:none"
         id="path14" /><path
         d="m 1679.57,960.98 c 0,-115.117 -83.52,-201.445 -199.34,-201.445 -91.25,0 -174.77,53.34 -192.32,149.5 h 82.12 c 14.04,-50.535 59.67,-77.91 110.2,-77.91 61.07,0 105.99,40.012 116.52,100.371 h -142.49 v 62.473 h 141.79 c -11.23,58.251 -55.46,96.851 -116.52,96.851 -51.94,0 -96.16,-28.06 -109.5,-77.2 h -82.12 c 16.84,93.36 98.97,148.81 191.62,148.81 115.82,0 200.04,-86.34 200.04,-201.45"
         style="fill:#100f0d;fill-opacity:1;fill-rule:nonzero;stroke:none"
         id="path16" /><path
         d="M 2101.68,1154 V 767.953 h -79.31 v 311.637 h -127.75 l -25.27,-161.434 c -18.95,-115.105 -61.76,-158.621 -127.74,-158.621 -12.64,0 -26.68,2.098 -39.31,4.207 v 71.594 c 7.72,-0.703 15.44,-2.109 23.16,-2.109 37.2,0 53.35,20.359 65.28,91.953 l 36.5,228.82 h 274.44"
         style="fill:#100f0d;fill-opacity:1;fill-rule:nonzero;stroke:none"
         id="path18" /><path
         d="M 2600.86,1154 V 767.953 h -79.31 v 161.434 l 5.61,134.063 -132.66,-188.809 h -2.1 l -132.66,188.809 5.61,-134.063 V 767.953 h -79.32 V 1154 h 93.36 L 2393.1,995.375 2507.51,1154 h 93.35"
         style="fill:#100f0d;fill-opacity:1;fill-rule:nonzero;stroke:none"
         id="path20" /><path
         d="m 2982.4,960.98 c 0,73.69 -51.24,125.63 -118.62,125.63 -67.38,0 -115.11,-51.94 -115.11,-125.63 0,-74.406 48.43,-125.644 115.11,-125.644 67.38,0 118.62,51.238 118.62,125.644 z M 3061.01,1154 V 767.953 h -79.31 v 64.57 c -28.08,-44.218 -74.4,-72.988 -134.77,-72.988 -103.18,0 -178.28,83.524 -178.28,201.445 0,117.92 76.51,201.45 177.58,201.45 61.07,0 107.39,-30.19 135.47,-74.41 V 1154 h 79.31"
         style="fill:#100f0d;fill-opacity:1;fill-rule:nonzero;stroke:none"
         id="path22" /><path
         d="m 3164.2,1119.26 h 8.56 c 5.2,0 6.88,2.14 6.88,5.97 0,3.66 -1.68,5.65 -6.88,5.65 h -8.56 z m 14.22,-6.42 11.92,-15.45 h -10.7 l -11.32,14.99 h -4.12 v -14.99 h -8.87 v 41.14 h 19.87 c 8.88,0 13.46,-5.35 13.46,-13.15 0,-6.58 -3.82,-11.17 -10.24,-12.54 z m 26.6,5.5 c 0,18.81 -15.14,33.95 -33.94,33.95 -18.81,0 -34.1,-15.14 -34.1,-33.95 0,-18.95 15.29,-34.09 34.1,-34.09 18.8,0 33.94,15.14 33.94,34.09 z m 7.34,0 c 0,-22.78 -18.5,-41.28 -41.28,-41.28 -22.79,0 -41.28,18.5 -41.28,41.28 0,22.79 18.49,41.28 41.28,41.28 22.78,0 41.28,-18.49 41.28,-41.28"
         style="fill:#100f0d;fill-opacity:1;fill-rule:nonzero;stroke:none"
         id="path24" /><path
         d="m 653.375,493.504 c 0,-62.102 -44.703,-108.606 -106.801,-108.606 -49.496,0 -89.094,29.407 -101.394,72.903 h 36.297 c 10.5,-25.5 35.699,-40.5 65.097,-40.5 37.801,0 65.102,25.199 71.098,60.898 h -88.496 v 32.403 h 88.195 c -6.601,34.796 -33.598,59.093 -70.797,59.093 -29.695,0 -54.597,-15 -65.097,-40.5 H 445.18 c 11.996,43.496 51.297,72.903 101.093,72.903 62.399,0 107.102,-46.504 107.102,-108.594"
         style="fill:#100f0d;fill-opacity:1;fill-rule:nonzero;stroke:none"
         id="path26" /><path
         d="M 837.836,553.492 V 388.504 H 803.938 V 521.695 H 749.34 l -10.797,-68.992 c -8.102,-49.199 -26.402,-67.805 -54.598,-67.805 -5.402,0 -11.402,0.911 -16.804,1.809 v 30.594 c 3.3,-0.301 6.601,-0.899 9.906,-0.899 15.894,0 22.797,8.703 27.898,39.297 l 15.598,97.793 h 117.293"
         style="fill:#100f0d;fill-opacity:1;fill-rule:nonzero;stroke:none"
         id="path28" /><path
         d="m 910.617,489.305 h 95.993 c -5.09,22.492 -22.192,38.398 -47.094,38.398 -25.797,0 -43.2,-16.199 -48.899,-38.398 z m 132.293,-27.61 H 908.816 c 2.7,-30.293 24,-47.09 51.602,-47.09 19.797,0 36.297,8.403 44.102,24.59 h 35.09 c -12.9,-36.894 -44.395,-54.297 -79.493,-54.297 -50.097,0 -85.797,36.008 -85.797,85.801 0,49.797 35.399,86.399 85.196,86.399 53.104,0 86.694,-41.106 83.394,-95.403"
         style="fill:#100f0d;fill-opacity:1;fill-rule:nonzero;stroke:none"
         id="path30" /><path
         d="m 1189.83,388.504 -77.7,76.203 v -76.203 h -33.9 v 164.988 h 33.9 v -71.394 l 71.39,71.394 h 43.51 l -80.7,-78.289 87.3,-86.699 h -43.8"
         style="fill:#100f0d;fill-opacity:1;fill-rule:nonzero;stroke:none"
         id="path32" /><path
         d="m 1394.06,521.695 h -53.7 V 388.504 h -33.9 v 133.191 h -54 v 31.797 h 87.9 53.7 v -31.797"
         style="fill:#100f0d;fill-opacity:1;fill-rule:nonzero;stroke:none"
         id="path34" /><path
         d="m 1556.63,471.004 c 0,31.496 -20.4,53.691 -49.2,53.691 -28.8,0 -50.7,-22.195 -50.7,-53.691 0,-31.809 21.9,-53.703 50.7,-53.703 28.5,0 49.2,21.894 49.2,53.703 z m 34.2,0 c 0,-50.402 -32.1,-86.106 -76.2,-86.106 -25.8,0 -45.6,12.61 -57.6,31.204 V 313.504 h -33.9 v 239.988 h 33.9 v -28.191 c 12,18.894 31.8,31.797 57.9,31.797 43.2,0 75.9,-35.703 75.9,-86.094"
         style="fill:#100f0d;fill-opacity:1;fill-rule:nonzero;stroke:none"
         id="path36" /><path
         d="m 1654.4,471.004 c 0,-31.809 22.5,-53.703 51.3,-53.703 28.8,0 51.3,21.894 51.3,53.703 0,31.797 -22.81,53.691 -51.3,53.691 -28.5,0 -51.3,-21.894 -51.3,-53.691 z m 136.79,0 c 0,-49.5 -37.49,-86.106 -85.49,-86.106 -47.7,0 -85.5,36.907 -85.5,86.106 0,49.797 38.4,86.094 85.5,86.094 47.39,0 85.49,-36.297 85.49,-86.094"
         style="fill:#100f0d;fill-opacity:1;fill-rule:nonzero;stroke:none"
         id="path38" /><path
         d="M 1982.5,553.492 V 388.504 h -33.9 v 68.094 H 1861 v -68.094 h -33.89 V 553.492 H 1861 v -64.793 h 87.6 v 64.793 h 33.9"
         style="fill:#100f0d;fill-opacity:1;fill-rule:nonzero;stroke:none"
         id="path40" /><path
         d="M 2182.03,553.492 V 388.504 h -33.9 v 68.094 h -87.6 v -68.094 h -33.9 v 164.988 h 33.9 v -64.793 h 87.6 v 64.793 h 33.9"
         style="fill:#100f0d;fill-opacity:1;fill-rule:nonzero;stroke:none"
         id="path42" /><path
         d="M 2424.75,553.492 V 388.504 h -33.9 v 164.988 z m -92.39,-107.09 c 0,15.293 -6,25.5 -26.7,25.5 h -45.6 v -50.996 h 45 c 20.7,0 27.3,10.801 27.3,25.496 z m 34.2,0 c 0,-39.597 -26.4,-57.898 -60.3,-57.898 h -80.1 v 164.988 h 33.9 v -51.59 h 47.39 c 33.91,0 59.11,-15.898 59.11,-55.5"
         style="fill:#100f0d;fill-opacity:1;fill-rule:nonzero;stroke:none"
         id="path44" /><path
         d="m 2497.72,489.305 h 95.99 c -5.09,22.492 -22.19,38.398 -47.1,38.398 -25.79,0 -43.19,-16.199 -48.89,-38.398 z m 132.29,-27.61 h -134.09 c 2.7,-30.293 24,-47.09 51.6,-47.09 19.79,0 36.29,8.403 44.09,24.59 h 35.1 c -12.9,-36.894 -44.4,-54.297 -79.49,-54.297 -50.1,0 -85.8,36.008 -85.8,85.801 0,49.797 35.4,86.399 85.19,86.399 53.11,0 86.7,-41.106 83.4,-95.403"
         style="fill:#100f0d;fill-opacity:1;fill-rule:nonzero;stroke:none"
         id="path46" /><path
         d="m 587.676,157.5 c 0,31.488 -20.403,53.691 -49.199,53.691 -28.801,0 -50.7,-22.203 -50.7,-53.691 0,-31.809 21.899,-53.699 50.7,-53.699 28.5,0 49.199,21.89 49.199,53.699 z m 34.199,0 c 0,-50.398 -32.102,-86.1094 -76.199,-86.1094 -25.797,0 -45.598,12.6094 -57.598,31.2114 V 0 H 454.18 v 239.988 h 33.898 v -28.199 c 12,18.902 31.801,31.801 57.899,31.801 43.199,0 75.898,-35.699 75.898,-86.09"
         style="fill:#100f0d;fill-opacity:1;fill-rule:nonzero;stroke:none"
         id="path48" /><path
         d="m 687.547,175.789 h 95.996 c -5.102,22.5 -22.195,38.402 -47.098,38.402 -25.797,0 -43.199,-16.191 -48.898,-38.402 z M 819.844,148.191 H 685.746 c 2.699,-30.293 24,-47.089 51.602,-47.089 19.793,0 36.297,8.398 44.097,24.589 h 35.098 C 803.641,88.8008 772.141,71.3906 737.047,71.3906 c -50.102,0 -85.797,36.0074 -85.797,85.8084 0,49.789 35.398,86.391 85.195,86.391 53.102,0 86.7,-41.102 83.399,-95.399"
         style="fill:#100f0d;fill-opacity:1;fill-rule:nonzero;stroke:none"
         id="path50" /><path
         d="M 1076.84,239.988 V 75 H 855.156 v 164.988 h 33.895 V 106.789 h 60 v 133.199 h 33.898 V 106.789 h 60.001 v 133.199 h 33.89"
         style="fill:#100f0d;fill-opacity:1;fill-rule:nonzero;stroke:none"
         id="path52" /><path
         d="m 1149.93,175.789 h 96 c -5.11,22.5 -22.2,38.402 -47.1,38.402 -25.8,0 -43.2,-16.191 -48.9,-38.402 z m 132.3,-27.598 h -134.1 c 2.7,-30.293 24,-47.089 51.6,-47.089 19.8,0 36.3,8.398 44.1,24.589 h 35.09 c -12.9,-36.8902 -44.39,-54.3004 -79.49,-54.3004 -50.1,0 -85.8,36.0074 -85.8,85.8084 0,49.789 35.4,86.391 85.2,86.391 53.1,0 86.7,-41.102 83.4,-95.399"
         style="fill:#100f0d;fill-opacity:1;fill-rule:nonzero;stroke:none"
         id="path54" /><path
         d="M 1472.93,239.988 V 75 h -33.9 v 68.09 h -87.6 V 75 h -33.89 v 164.988 h 33.89 v -64.797 h 87.6 v 64.797 h 33.9"
         style="fill:#100f0d;fill-opacity:1;fill-rule:nonzero;stroke:none"
         id="path56" /><path
         d="M 1670.36,239.988 V 75 h -33.9 v 68.988 l 2.1,52.203 L 1556.96,75 h -39.9 v 164.988 h 33.9 v -69 l -2.1,-51.886 81.6,120.886 h 39.9"
         style="fill:#100f0d;fill-opacity:1;fill-rule:nonzero;stroke:none"
         id="path58" /><path
         d="m 1817.48,162.602 v 46.789 h -47.1 c -21,0 -27.6,-10.192 -27.6,-23.993 0,-13.507 8.4,-22.796 28.5,-22.796 z m 33.9,77.386 V 75 h -33.9 v 59.699 h -32.7 L 1741.88,75 h -41.7 l 48.3,62.102 c -22.8,5.687 -39.9,20.097 -39.9,47.687 0,38.102 26.1,55.199 60,55.199 h 82.8"
         style="fill:#100f0d;fill-opacity:1;fill-rule:nonzero;stroke:none"
         id="path60" /><path
         d="M 26.207,1049.17 C 11.7344,1049.17 0,1060.9 0,1075.38 c 0,14.47 11.7344,26.2 26.207,26.2 14.4727,0 26.2071,-11.73 26.2071,-26.2 0,-14.48 -11.7344,-26.21 -26.2071,-26.21"
         style="fill:#100f0d;fill-opacity:1;fill-rule:nonzero;stroke:none"
         id="path62" /><path
         d="m 226.09,1049.17 c -14.473,0 -26.207,11.73 -26.207,26.21 0,14.47 11.734,26.2 26.207,26.2 14.476,0 26.211,-11.73 26.211,-26.2 0,-14.48 -11.735,-26.21 -26.211,-26.21"
         style="fill:#100f0d;fill-opacity:1;fill-rule:nonzero;stroke:none"
         id="path64" /><path
         d="m 226.09,849.281 c -14.473,0 -26.207,11.735 -26.207,26.207 0,14.477 11.734,26.211 26.207,26.211 14.476,0 26.211,-11.734 26.211,-26.211 0,-14.472 -11.735,-26.207 -26.211,-26.207"
         style="fill:#100f0d;fill-opacity:1;fill-rule:nonzero;stroke:none"
         id="path66" /></g></g></svg>
